<?xml version="1.0" standalone="no"?><!DOCTYPE svg PUBLIC "-//W3C//DTD SVG 1.1//EN" "http://www.w3.org/Graphics/SVG/1.1/DTD/svg11.dtd"><svg class="icon" width="200px" height="200.00px" viewBox="0 0 1024 1024" version="1.1" xmlns="http://www.w3.org/2000/svg"><path fill="#8a8a8a" d="M457.495 72.095a101.035 101.035 0 0 0-42.723 45.533l-66.251 140.931-181.05 23.459c-55.337 7.17-94.384 57.842-87.214 113.18l0.114 0.849a101.035 101.035 0 0 0 24.578 53.302l132.702 149.25-28.79 174.085c-9.105 55.052 28.143 107.061 83.196 116.166l0.866 0.139a101.035 101.035 0 0 0 57.849-8.034l149.439-68.757 152.26 76.51c49.86 25.054 110.589 4.945 135.643-44.914l0.393-0.79a101.035 101.035 0 0 0 9.87-54.554L778.87 591.96l135.568-131.898c39.994-38.911 40.872-102.877 1.96-142.871l-0.56-0.572a101.035 101.035 0 0 0-56.312-28.804l-185.382-28.865-79.038-146.35c-26.516-49.097-87.813-67.403-136.91-40.887l-0.702 0.383z m65.532 79.432l82.257 152.312a68.267 68.267 0 0 0 49.564 35.014l192.077 29.905a19.115 19.115 0 0 1 10.76 5.558c7.36 7.566 7.195 19.668-0.372 27.03L717.03 537.83a68.267 68.267 0 0 0-20.327 55.673l20.154 203.038a19.115 19.115 0 0 1-1.942 10.47c-4.74 9.433-16.229 13.238-25.662 8.498l-158.13-79.46a68.267 68.267 0 0 0-59.185-1.018l-155.407 71.502a19.115 19.115 0 0 1-11.108 1.493c-10.415-1.722-17.462-11.562-15.74-21.977l29.854-180.514a68.267 68.267 0 0 0-16.335-56.5l-137.033-154.12a19.115 19.115 0 0 1-4.671-10.245c-1.357-10.47 6.03-20.056 16.5-21.412l188.47-24.42a68.267 68.267 0 0 0 53.008-38.658l69.433-147.702a19.115 19.115 0 0 1 8.216-8.687c9.288-5.017 20.885-1.553 25.902 7.735z" /></svg>