<?xml version="1.0" standalone="no"?><!DOCTYPE svg PUBLIC "-//W3C//DTD SVG 1.1//EN" "http://www.w3.org/Graphics/SVG/1.1/DTD/svg11.dtd"><svg class="icon" width="200px" height="200.00px" viewBox="0 0 1024 1024" version="1.1" xmlns="http://www.w3.org/2000/svg"><path fill="#8a8a8a" d="M824.4 230h-74l-15.6-31.1c-0.1-0.3-0.3-0.5-0.4-0.8l-0.7-1.3c-13.6-24.8-30.4-55.6-64.7-55.6H491.3c-14.4 0-28.4 6.4-40.6 18.4-8.8 8.7-16.6 20.6-21.9 33.3-3.1 7.3-9.3 15.3-13.1 15-13.2-1.2-24.9 8.6-26 21.8-1.2 13.2 8.6 24.8 21.8 26 30.6 2.7 51.9-21.1 61.6-44.3 6.5-15.5 15.8-22.3 18.2-22.3H669c5.9 0 16.4 19.2 22.6 30.6l0.5 0.9 22 44c4.1 8.1 12.4 13.3 21.5 13.3h88.8c35.7 0 64.8 29.1 64.8 64.8V698c0 84.7-68.9 153.7-153.7 153.7h-533c-35.7 0-64.8-29.1-64.8-64.8V387.3c0-35.7 29-64.8 64.7-64.8 5.6 0.1 168.4 1.8 244.6 1.8h18.4c12.5 0 17.2 4.7 19.6 8.2 3.6 5.2 4.4 11.3 4.4 12.7 0 13.3 10.7 24 24 24s24-10.7 24-24c0-26.6-19.6-68.9-72-68.9H447c-76.9 0-242.6-1.7-244.3-1.8h-0.3c-62.2 0-112.8 50.6-112.8 112.8V787c0 62.2 50.6 112.8 112.8 112.8h533c111.2 0 201.7-90.5 201.7-201.7V342.8c0.1-62.2-50.5-112.8-112.7-112.8z"  /><path fill="#8a8a8a" d="M356.2 564.9c0 86.7 70.5 157.2 157.3 157.2 86.7 0 157.2-70.5 157.2-157.2s-70.5-157.2-157.2-157.2c-86.7 0-157.3 70.5-157.3 157.2z m266.5 0c0 60.2-49 109.2-109.2 109.2s-109.3-49-109.3-109.2 49-109.2 109.3-109.2c60.2 0 109.2 49 109.2 109.2zM202.6 244.7h88.8c12.3 0 22.2-9.9 22.2-22.2 0-12.3-9.9-22.2-22.2-22.2h-88.8c-12.3 0-22.2 9.9-22.2 22.2 0 12.3 9.9 22.2 22.2 22.2z"  /></svg>