<?xml version="1.0" standalone="no"?><!DOCTYPE svg PUBLIC "-//W3C//DTD SVG 1.1//EN" "http://www.w3.org/Graphics/SVG/1.1/DTD/svg11.dtd"><svg class="icon" width="200px" height="200.00px" viewBox="0 0 1024 1024" version="1.1" xmlns="http://www.w3.org/2000/svg"><path fill="#707070" d="M153.6 396.8c-21.333333 0-34.133333-12.8-34.133333-29.866667V226.133333c0-59.733333 46.933333-106.666667 106.666666-106.666666h136.533334c17.066667 0 34.133333 12.8 34.133333 34.133333s-17.066667 29.866667-34.133333 29.866667H226.133333c-25.6 0-42.666667 21.333333-42.666666 42.666666v140.8c0 17.066667-12.8 29.866667-29.866667 29.866667zM797.866667 908.8h-136.533334c-17.066667 0-34.133333-12.8-34.133333-34.133333 0-17.066667 12.8-34.133333 34.133333-34.133334h136.533334c25.6 0 42.666667-21.333333 42.666666-42.666666v-140.8c0-17.066667 12.8-34.133333 34.133334-34.133334s34.133333 12.8 34.133333 34.133334v140.8c-4.266667 59.733333-51.2 110.933333-110.933333 110.933333zM874.666667 396.8c-17.066667 0-34.133333-12.8-34.133334-34.133333V226.133333c0-25.6-21.333333-42.666667-42.666666-42.666666h-140.8c-17.066667 0-34.133333-12.8-34.133334-34.133334s12.8-34.133333 34.133334-34.133333h140.8c59.733333 0 106.666667 46.933333 106.666666 106.666667v136.533333c0 21.333333-12.8 38.4-29.866666 38.4zM366.933333 904.533333H226.133333c-59.733333 0-106.666667-46.933333-106.666666-106.666666v-136.533334c0-17.066667 12.8-34.133333 34.133333-34.133333s34.133333 12.8 34.133333 34.133333v136.533334c0 25.6 21.333333 42.666667 42.666667 42.666666h140.8c17.066667 0 34.133333 12.8 34.133333 34.133334-8.533333 17.066667-21.333333 29.866667-38.4 29.866666zM874.666667 546.133333h-725.333334c-17.066667 0-25.6-12.8-25.6-25.6V512c0-17.066667 12.8-25.6 25.6-25.6h725.333334c17.066667 0 25.6 12.8 25.6 25.6v8.533333c0 12.8-12.8 25.6-25.6 25.6z" /></svg>