<?xml version="1.0" standalone="no"?><!DOCTYPE svg PUBLIC "-//W3C//DTD SVG 1.1//EN" "http://www.w3.org/Graphics/SVG/1.1/DTD/svg11.dtd"><svg class="icon" width="200px" height="200.00px" viewBox="0 0 1024 1024" version="1.1" xmlns="http://www.w3.org/2000/svg"><path fill="#FD651D" d="M512 64.7C264.9 64.7 64.7 264.9 64.7 512S264.9 959.3 512 959.3 959.3 759.1 959.3 512 759.1 64.7 512 64.7z m262 319.5L473.2 685c-6 6-14.1 9.4-22.6 9.4S434 691 428 685L250 507c-12.5-12.5-12.5-32.8 0-45.3s32.8-12.5 45.3 0l155.4 155.4L728.8 339c12.5-12.5 32.8-12.5 45.3 0 12.4 12.5 12.4 32.7-0.1 45.2z" /></svg>