<?xml version="1.0" standalone="no"?><!DOCTYPE svg PUBLIC "-//W3C//DTD SVG 1.1//EN" "http://www.w3.org/Graphics/SVG/1.1/DTD/svg11.dtd"><svg class="icon" width="200px" height="200.00px" viewBox="0 0 1024 1024" version="1.1" xmlns="http://www.w3.org/2000/svg"><path fill="#FF5677" d="M924.73 435.89c-14.33-11.8-33.45-21.9-56.79-30.03-41.51-14.45-95.68-22.42-152.49-22.42-8.32 0-16.56 0.16-24.74 0.51-36.82 1.51-71.85 6.39-102.2 14.24-8.94 2.3-17.49 4.85-25.55 7.67-23.34 8.13-42.46 18.23-56.82 30.03-27.85 22.93-33.7 48.24-33.7 65.46v340.11c0 1.51 0.05 3.07 0.14 4.69a76.81 76.81 0 0 0 6.27 25.9c4.95 11.34 13.38 23.39 27.29 34.87 10.99 9.06 24.78 17.1 41.14 24.02 4.99 2.14 10.22 4.13 15.68 6.04 41.51 14.45 95.65 22.39 152.49 22.39 56.82 0 110.98-7.94 152.49-22.39 23.34-8.13 42.46-18.23 56.79-30.06 27.87-22.93 33.7-48.25 33.7-65.46V501.4v-0.05c0-17.21-5.83-42.53-33.7-65.46z m-234.02 50.34c7.87-0.37 16.1-0.58 24.74-0.58 53.1 0 91.73 7.76 115.89 15.7-24.16 7.97-62.79 15.7-115.89 15.7-8.64 0-16.86-0.21-24.74-0.58-40.56-1.93-70.94-8.46-91.17-15.12 20.23-6.64 50.61-13.17 91.17-15.12z m165.52 344.4c-15.14 9.5-62.02 26.53-140.79 26.53-19.77 0-37.54-1.07-53.29-2.83-47.04-5.25-76.19-16.58-87.52-23.69v-59.95c4.51 1.37 9.13 2.65 13.87 3.88 30.15 7.78 64.88 12.66 101.44 14.19 8.41 0.37 16.93 0.56 25.5 0.56 51.64 0 101.04-6.57 140.79-18.63v59.94z m0-170.05c-15.14 9.5-62.02 26.53-140.79 26.53-8.62 0-16.86-0.21-24.74-0.58-48.76-2.32-82.81-11.29-102.2-19.14-6.04-2.44-10.66-4.79-13.87-6.81v-59.95c33.36 10.1 73.49 16.38 116.07 18.09 8.15 0.37 16.42 0.53 24.74 0.53 51.64 0 101.04-6.57 140.79-18.63v59.96z"  /><path fill="#FF5677" d="M451.36 885.06c-4.6-10.57-7.5-21.67-8.62-33.08-20.44 2.86-41.81 4.37-63.44 4.37-61.44 0-120.74-12.13-162.74-33.26-29.64-14.91-48.8-33.68-48.8-47.83V649.27c54.98 28.64 128.52 45.62 211.54 45.62 21.67 0 42.72-1.16 62.93-3.39V588.36c-20.28 2.83-41.46 4.32-62.93 4.32-61.44 0-120.74-12.13-162.74-33.26-29.64-14.91-48.8-33.68-48.8-47.83V385.58c54.98 28.64 128.52 45.64 211.54 45.64 33.45 0 65.36-2.76 95.14-7.94 4.06-4.37 8.52-8.52 13.33-12.5 17.35-14.26 39.81-26.25 66.8-35.63 8.76-3.07 18.23-5.9 28.13-8.45 32.36-8.36 70.06-13.64 108.99-15.24 0.44-0.02 0.88-0.05 1.32-0.05v-99.3h-0.09c0.05-1.39 0.09-2.79 0.09-4.18 0-104.5-134.89-183.29-313.72-183.29-178.86 0-313.74 78.79-313.74 183.29 0 1.39 0.05 2.79 0.09 4.18h-0.09v523.15c0 52.26 33.73 98.07 89.8 130.84 56.07 32.75 134.51 52.45 223.94 52.45 45.16 0 87.5-5.04 125.59-14.22-6.18-3.9-11.89-8.01-17.14-12.33-16.47-13.61-28.71-29.41-36.38-46.94zM216.57 200.1c42-21.14 101.3-33.26 162.74-33.26 61.42 0 120.72 12.13 162.71 33.26 29.64 14.91 48.8 33.68 48.8 47.83 0 14.12-19.16 32.89-48.8 47.83-42 21.14-101.3 33.26-162.71 33.26-61.44 0-120.74-12.13-162.74-33.26-29.64-14.94-48.8-33.7-48.8-47.83 0-14.15 19.16-32.91 48.8-47.83z"  /></svg>