<?xml version="1.0" standalone="no"?><!DOCTYPE svg PUBLIC "-//W3C//DTD SVG 1.1//EN" "http://www.w3.org/Graphics/SVG/1.1/DTD/svg11.dtd"><svg class="icon" width="200px" height="200.00px" viewBox="0 0 1024 1024" version="1.1" xmlns="http://www.w3.org/2000/svg"><path fill="#ffffff" d="M389.61 731.04c-9.84 0-19.57-4.43-25.99-12.87-10.92-14.34-8.15-34.82 6.19-45.74l244.82-186.39c14.33-10.91 34.83-8.16 45.74 6.19 10.92 14.34 8.15 34.82-6.19 45.74l-244.82 186.4a32.517 32.517 0 0 1-19.75 6.67z"  /><path fill="#ffffff" d="M634.39 544.65c-6.9 0-13.84-2.17-19.75-6.67l-244.82-186.4c-14.34-10.92-17.12-31.4-6.19-45.74 10.91-14.35 31.4-17.13 45.74-6.19l244.82 186.4c14.34 10.92 17.12 31.4 6.19 45.74-6.42 8.43-16.15 12.86-25.99 12.86z"  /></svg>