<?xml version="1.0" standalone="no"?><!DOCTYPE svg PUBLIC "-//W3C//DTD SVG 1.1//EN" "http://www.w3.org/Graphics/SVG/1.1/DTD/svg11.dtd"><svg class="icon" width="200px" height="200.00px" viewBox="0 0 1024 1024" version="1.1" xmlns="http://www.w3.org/2000/svg"><path fill="#FF5677" d="M901.76 197.333333a104.533333 104.533333 0 0 0-42.666667-22.4A100.693333 100.693333 0 0 0 832 170.666667H192a103.253333 103.253333 0 0 0-25.813333 3.626666 102.186667 102.186667 0 0 0-44.8 23.68A106.666667 106.666667 0 0 0 85.333333 277.333333v469.333334a106.666667 106.666667 0 0 0 106.666667 106.666666h640a106.666667 106.666667 0 0 0 106.666667-106.666666V277.333333a106.666667 106.666667 0 0 0-36.906667-80zM192 213.333333h640a67.626667 67.626667 0 0 1 18.56 2.986667 69.76 69.76 0 0 1-8.746667 10.88L552.32 516.906667a64 64 0 0 1-90.666667 0L182.186667 237.226667a61.653333 61.653333 0 0 1-13.226667-19.413334A64 64 0 0 1 192 213.333333z m704 533.333334a64 64 0 0 1-64 64H192a64 64 0 0 1-64-64V277.333333a65.28 65.28 0 0 1 8.106667-30.72 106.666667 106.666667 0 0 0 15.786666 21.333334l279.68 279.466666a106.666667 106.666667 0 0 0 150.826667 0l289.706667-290.133333a98.773333 98.773333 0 0 0 12.8-15.786667A64 64 0 0 1 896 277.333333z" /></svg>